<?xml version="1.0" standalone="no"?>
<!DOCTYPE svg PUBLIC "-//W3C//DTD SVG 20010904//EN"
 "http://www.w3.org/TR/2001/REC-SVG-20010904/DTD/svg10.dtd">
<svg version="1.0" xmlns="http://www.w3.org/2000/svg"
 width="512.000000pt" height="512.000000pt" viewBox="0 0 512.000000 512.000000"
 preserveAspectRatio="xMidYMid meet">
<metadata>
Created by potrace 1.11, written by Peter Selinger 2001-2013
</metadata>
<g transform="translate(0.000000,512.000000) scale(0.100000,-0.100000)"
fill="#000000" stroke="none">
<path d="M2379 5116 c-2 -2 -40 -6 -83 -10 -44 -4 -82 -8 -85 -10 -3 -2 -31
-7 -61 -11 -30 -3 -75 -11 -100 -17 -25 -5 -56 -12 -70 -14 -14 -3 -72 -18
-129 -35 -464 -133 -906 -414 -1213 -769 -71 -82 -82 -96 -104 -125 -10 -15
-33 -46 -50 -69 -204 -275 -365 -641 -433 -991 -40 -200 -46 -267 -45 -515 0
-183 3 -241 19 -345 3 -16 7 -43 9 -60 33 -235 138 -545 267 -791 43 -81 186
-302 236 -363 164 -202 313 -347 497 -485 321 -241 733 -415 1112 -471 22 -4
50 -8 64 -11 103 -19 473 -26 600 -12 147 17 153 18 250 38 30 6 66 13 80 16
130 25 389 118 551 199 639 318 1109 871 1318 1550 78 254 105 447 106 740 0
217 -11 339 -44 500 -6 28 -13 61 -15 75 -19 96 -80 286 -133 415 -273 663
-843 1199 -1527 1434 -104 36 -284 85 -356 97 -70 11 -85 14 -195 30 -44 6
-460 15 -466 10z"/>
</g>
</svg>
